<svg xmlns="http://www.w3.org/2000/svg" width="25" height="25" viewBox="150 150 500 500" version="1.1"><path fill="white" fill-rule="evenodd" stroke="none" d="M249 171.497c-9.963 2.229-23.65 7.227-32.419 11.838-14.778 7.772-31.155 26.039-37.969 42.352-17.474 41.833-10.148 98.089 21.03 161.484 15.396 31.306 33.551 58.751 59.421 89.829 11.24 13.503 50.069 51.825 64.937 64.09 48.161 39.728 91.375 64.171 140.41 79.418 21.569 6.706 33.627 8.686 56.23 9.232 22.877.552 29.039-.286 47.841-6.504 29.75-9.84 50.537-33.885 58.656-67.849 2.129-8.908 2.356-12.066 2.292-31.887-.064-19.81-.336-23.255-2.726-34.612-13.674-64.964-52.474-132.63-109.681-191.275-22.988-23.567-39.755-38.38-66.557-58.801-8.318-6.338-29.832-20.289-42.465-27.539-31.327-17.976-64.838-31.246-95.71-37.9-10.15-2.188-14.919-2.597-34.29-2.936-17.217-.301-24.026-.052-29 1.06m150.07 83.86c-.052 5.893-.382 7.719-1.32 7.307-9.149-4.029-16.431-6.495-27.72-9.388-13.024-3.336-14.259-3.471-33.03-3.594-17.505-.114-20.318.105-27.5 2.147-28.201 8.017-49.176 28.381-56.457 54.815-1.855 6.734-4.388 22.344-3.732 23 .184.184 2.943-2.405 6.131-5.753 18.681-19.621 51.736-28.639 95.584-26.076 22.422 1.311 45.993 5.44 45.942 8.048-.017.9-.683 6.137-1.48 11.637-.797 5.5-1.458 10.611-1.469 11.357-.011.794-.643 1.118-1.524.779-.828-.317-6.351-1.103-12.273-1.745-24.12-2.616-51.845 4.873-66.363 17.925-5.9 5.306-9.048 10.449-12.37 20.215-2.859 8.408-3.167 15.856-.989 23.969 2.229 8.303 2.469 8-6.34 8-16.245 0-44.284 1.351-42.996 2.072.737.413 14.164 1.235 29.838 1.828 48.665 1.841 71.113 6.749 88.769 19.407 2.348 1.684 6.031 5.344 8.183 8.133 4.026 5.218 10.415 17.818 11.646 22.966l.695 2.906-15.767-.575c-8.672-.317-15.376-.209-14.897.239.478.448 5.369 2.464 10.869 4.479 20.035 7.339 21.808 8.09 22.564 9.555.904 1.749 3.409 23.851 2.775 24.484-.555.555-31.728-10.482-42.839-15.167-12.282-5.18-28.999-13.69-38.371-19.534-10.042-6.262-28.371-20.47-30.398-23.563-2.642-4.032-2.571-1.487.084 3.044 7.915 13.506 38.01 46.531 55.685 61.105 15.514 12.793 37.58 26.97 50.627 32.529l6.873 2.928.301 6.832c.404 9.174 2.199 10.833 2.199 2.032 0-3.685.421-6.7.936-6.7.515 0 4.453 1.358 8.75 3.017 4.298 1.659 13.326 4.376 20.063 6.037 51.673 12.742 93.07-1.571 111.092-38.413 2.19-4.477 4.498-9.941 5.128-12.141 1.632-5.7 4.95-23.914 4.447-24.417-.232-.232-3.019 2.144-6.193 5.28-6.59 6.509-9.377 8.533-17.552 12.743-21.565 11.108-47.85 15.315-81.171 12.993-13.921-.97-38.7-4.869-41.348-6.505-.634-.392-1.151-2.373-1.151-4.403.002-3.745 2.633-20.158 3.346-20.871.214-.214 2.361.065 4.771.621 5.642 1.301 21.886 1.32 33.382.041 24.407-2.717 43.029-13.411 50.819-29.185 5.287-10.705 6.54-19.387 4.3-29.808-.967-4.501-1.482-8.459-1.145-8.796.338-.338 11.731-.986 25.32-1.44 13.588-.455 25.381-1.117 26.206-1.471.825-.355-12-1.199-28.5-1.878-56.864-2.337-80.628-8.341-96.5-24.38-6.88-6.953-13.573-18.616-14.712-25.638l-.603-3.712 16.908.613c19.181.696 19.564 1.383-4.093-7.32-7.7-2.832-14.553-5.678-15.23-6.324-1.238-1.183-4.895-24.351-3.986-25.26.67-.67 19.319 5.675 36.216 12.322 26.62 10.473 48.942 23.35 69.329 39.994 5.727 4.675 10.058 7.893 9.624 7.151-6.549-11.214-24.445-32.576-40.593-48.456-21.346-20.992-41.009-35.515-63.648-47.008-5.892-2.991-11.274-5.894-11.962-6.451-.718-.583-1.28-3.444-1.32-6.724-.115-9.311-1.778-10.969-1.86-1.854M375.5 351.48c-18.242 4.27-33.366 11.301-48.595 22.591-9.022 6.688-20.763 20.6-18.817 22.297.815.712 27.69-3.252 32.992-4.866 12.901-3.926 19.456-6.704 25.849-10.955 9.285-6.172 14.221-12.436 20.331-25.797l2.629-5.75-2.194.07c-1.207.038-6.695 1.123-12.195 2.41M477 405.113c-32.743 4.95-48.436 12.755-58.842 29.266-3.393 5.385-8.158 14.954-8.158 16.384 0 .28 2.134.216 4.742-.141 22.371-3.066 51.299-16.949 66.154-31.747 8.947-8.913 13.429-16.083 9.854-15.763-.687.061-6.875.962-13.75 2.001" data-index="0" style="opacity:1;visibility:visible"/></svg>