<svg width="237" draggable="false" height="97" viewBox="0 0 237 97" fill="currentColor" xmlns="http://www.w3.org/2000/svg">
<path fill-rule="evenodd" clip-rule="evenodd" d="M16.2431 1.24549C14.2117 1.71008 11.421 2.75183 9.63301 3.71291C6.61985 5.33284 3.28066 9.14026 1.89132 12.5404C-1.67154 21.2597 -0.177803 32.9853 6.17924 46.1988C9.3184 52.724 13.0201 58.4444 18.2949 64.9221C20.5867 67.7365 28.5037 75.7241 31.5352 78.2805C41.355 86.5611 50.1661 91.6558 60.1641 94.8337C64.5619 96.2315 67.0205 96.6442 71.6291 96.758C76.2936 96.873 77.55 96.6984 81.3837 95.4023C87.4495 93.3514 91.6879 88.3396 93.3433 81.2604C93.7774 79.4037 93.8237 78.7455 93.8107 74.6142C93.7976 70.4851 93.7421 69.7671 93.2548 67.3999C90.4668 53.8593 82.5556 39.7556 70.8914 27.5321C66.2043 22.62 62.7856 19.5325 57.3208 15.2761C55.6248 13.955 51.2382 11.0472 48.6624 9.53608C42.275 5.7893 35.4422 3.02341 29.1476 1.63651C27.0781 1.18046 26.1057 1.09521 22.156 1.02455C18.6456 0.961812 17.2573 1.01371 16.2431 1.24549ZM46.8416 18.7246C46.831 19.9529 46.7637 20.3335 46.5725 20.2476C44.707 19.4078 43.2223 18.8938 40.9205 18.2908C38.265 17.5955 38.0132 17.5674 34.1858 17.5417C30.6167 17.518 30.0431 17.5636 28.5787 17.9892C22.8287 19.6602 18.552 23.9048 17.0674 29.4144C16.6892 30.818 16.1727 34.0716 16.3065 34.2084C16.344 34.2467 16.9066 33.7071 17.5566 33.0093C21.3655 28.9196 28.1053 27.04 37.0457 27.5742C41.6174 27.8474 46.4234 28.7081 46.413 29.2517C46.4096 29.4392 46.2738 30.5308 46.1113 31.6772C45.9488 32.8236 45.814 33.8888 45.8117 34.0443C45.8095 34.2098 45.6806 34.2774 45.501 34.2067C45.3322 34.1406 44.2061 33.9768 42.9986 33.843C38.0806 33.2977 32.4277 34.8587 29.4675 37.5791C28.2645 38.6851 27.6227 39.757 26.9453 41.7926C26.3624 43.5451 26.2996 45.0975 26.7437 46.7885C27.1982 48.5191 27.2471 48.4559 25.451 48.4559C22.1387 48.4559 16.4217 48.7375 16.6843 48.8878C16.8346 48.9739 19.5723 49.1452 22.7681 49.2688C32.6907 49.6526 37.2677 50.6755 40.8677 53.3139C41.3464 53.6649 42.0974 54.4277 42.5362 55.009C43.357 56.0966 44.6597 58.7229 44.9107 59.7959L45.0524 60.4016L41.8376 60.2817C40.0694 60.2157 38.7025 60.2382 38.8002 60.3316C38.8977 60.4249 39.8949 60.8451 41.0163 61.2651C45.1014 62.7948 45.4629 62.9513 45.617 63.2567C45.8013 63.6212 46.3121 68.228 46.1828 68.3599C46.0697 68.4756 39.7136 66.1752 37.4482 65.1987C34.9439 64.119 31.5354 62.3452 29.6245 61.1271C27.577 59.8219 23.8398 56.8605 23.4265 56.2159C22.8878 55.3755 22.9023 55.9059 23.4436 56.8503C25.0575 59.6654 31.1937 66.5489 34.7975 69.5866C37.9608 72.253 42.4599 75.208 45.1201 76.3667L46.5215 76.9769L46.5829 78.401C46.6652 80.3131 47.0312 80.6589 47.0312 78.8245C47.0312 78.0564 47.1171 77.428 47.2221 77.428C47.3271 77.428 48.13 77.711 49.0062 78.0568C49.8825 78.4026 51.7233 78.9689 53.0969 79.3151C63.6328 81.971 72.0734 78.9877 75.748 71.3086C76.1945 70.3755 76.6651 69.2366 76.7936 68.7781C77.1263 67.59 77.8029 63.7936 77.7003 63.6888C77.653 63.6404 77.0847 64.1357 76.4376 64.7893C75.0939 66.146 74.5257 66.5678 72.8588 67.4453C68.4618 69.7606 63.1024 70.6375 56.3085 70.1535C53.47 69.9513 48.4177 69.1386 47.8778 68.7977C47.7485 68.7159 47.6431 68.303 47.6431 67.8799C47.6435 67.0993 48.18 63.6784 48.3253 63.5297C48.369 63.4851 48.8068 63.5433 49.2981 63.6592C50.4485 63.9304 53.7606 63.9343 56.1046 63.6677C61.081 63.1014 64.878 60.8724 66.4663 57.5846C67.5443 55.3534 67.7998 53.5438 67.343 51.3717C67.1459 50.4336 67.0409 49.6086 67.1096 49.5383C67.1785 49.4679 69.5015 49.3328 72.2722 49.2382C75.0427 49.1434 77.4473 49.0054 77.6155 48.9316C77.7837 48.8576 75.1687 48.6817 71.8045 48.5402C60.2102 48.053 55.3648 46.8016 52.1286 43.4586C50.7258 42.0094 49.3611 39.5784 49.1289 38.1148L49.006 37.3411L52.4534 37.4689C56.3643 37.6139 56.4424 37.7571 51.6189 35.9432C50.0489 35.3529 48.6516 34.7597 48.5135 34.625C48.2611 34.3785 47.5155 29.5495 47.7008 29.36C47.8374 29.2204 51.6399 30.5429 55.0851 31.9283C60.5128 34.1112 65.0641 36.7952 69.2209 40.2644C70.3886 41.2388 71.2717 41.9095 71.1832 41.7549C69.8479 39.4175 66.199 34.965 62.9065 31.6551C58.5542 27.2797 54.545 24.2526 49.929 21.8571C48.7276 21.2337 47.6303 20.6286 47.49 20.5125C47.3436 20.391 47.229 19.7947 47.2209 19.111C47.1974 17.1703 46.8583 16.8247 46.8416 18.7246ZM42.0358 38.7597C38.3164 39.6497 35.2326 41.1152 32.1275 43.4684C30.288 44.8624 27.8941 47.7621 28.2908 48.1158C28.457 48.2642 33.9367 47.438 35.0177 47.1016C37.6482 46.2833 38.9847 45.7042 40.2882 44.8182C42.1814 43.5317 43.1878 42.2261 44.4336 39.4413L44.9697 38.2428L44.5223 38.2574C44.2762 38.2653 43.1572 38.4914 42.0358 38.7597ZM62.7311 49.9385C56.055 50.9703 52.8553 52.5971 50.7336 56.0385C50.0417 57.1609 49.0702 59.1554 49.0702 59.4534C49.0702 59.5118 49.5053 59.4985 50.0371 59.4241C54.5984 58.785 60.4967 55.8913 63.5255 52.807C65.3498 50.9492 66.2636 49.4548 65.5347 49.5214C65.3946 49.5342 64.1329 49.722 62.7311 49.9385Z" fill="#FAFAFA" fill-opacity="0.2"/>
<path d="M51.632 76H45.232V53.6C45.232 50.656 44.5067 47.968 43.056 45.536C41.648 43.104 39.728 41.184 37.296 39.776C34.864 38.3253 32.176 37.6 29.232 37.6H25.776V76H19.376V31.2H29.232C33.2853 31.2 36.9973 32.2027 40.368 34.208C43.7813 36.2133 46.4693 38.8373 48.432 42.08C50.3947 38.8373 53.0613 36.2133 56.432 34.208C59.8453 32.2027 63.5787 31.2 67.632 31.2H77.488V76H71.088V37.6H67.632C64.688 37.6 62 38.3253 59.568 39.776C57.1787 41.184 55.2587 43.104 53.808 45.536C52.3573 47.968 51.632 50.656 51.632 53.6V76Z"/>
<path d="M133.064 76H126.664V47.136H109.704V40.8H149.96V47.136H133.064V76Z"/>
<path d="M116.944 76H108.56L95.76 62.816L82.96 76H74.512L91.536 58.464L74.512 40.8H82.96L116.944 76ZM116.944 40.8L101.776 56.544L97.616 52.192L108.56 40.8H116.944Z"/>
<path d="M235.112 63.2C235.112 65.5467 234.536 67.7013 233.384 69.664C232.232 71.584 230.675 73.12 228.712 74.272C226.792 75.424 224.659 76 222.312 76H191.976V69.6H222.312C224.061 69.6 225.555 68.9813 226.792 67.744C228.072 66.464 228.712 64.9493 228.712 63.2C228.712 61.4507 228.072 59.9573 226.792 58.72C225.555 57.44 224.061 56.8 222.312 56.8H191.976V50.4H215.912C217.661 50.4 219.155 49.7813 220.392 48.544C221.672 47.264 222.312 45.7493 222.312 44C222.312 42.2507 221.672 40.7573 220.392 39.52C219.155 38.24 217.661 37.6 215.912 37.6H188.776V76H182.376V31.2H215.912C218.259 31.2 220.392 31.776 222.312 32.928C224.275 34.08 225.832 35.6373 226.984 37.6C228.136 39.52 228.712 41.6533 228.712 44C228.712 45.3227 228.52 46.6027 228.136 47.84C227.752 49.0347 227.219 50.144 226.536 51.168C229.053 52.0213 231.101 53.5573 232.68 55.776C234.301 57.952 235.112 60.4267 235.112 63.2Z"/>
<path d="M179.344 76.1H142.608V40.772H179.344V47.236H149.072V69.636H179.344V76.1ZM175.248 61.508H152.08V55.044H175.248V61.508Z"/>
</svg>
