<svg width="1415" height="512" viewBox="0 0 1415 512" fill="none" xmlns="http://www.w3.org/2000/svg">
<g clip-path="url(#clip0_1_2)">
<path d="M256 10C391.862 10 502 120.138 502 256C502 391.862 391.862 502 256 502C120.138 502 10 391.862 10 256C10 120.138 120.138 10 256 10Z" fill="url(#paint0_linear_1_2)" stroke="url(#paint1_linear_1_2)" stroke-width="20"/>
<line x1="152.248" y1="183.844" x2="248.74" y2="374.859" stroke="#7D707A" stroke-opacity="0.4" stroke-width="14"/>
<line x1="422.649" y1="184.613" x2="255.265" y2="375.629" stroke="#7D707A" stroke-opacity="0.4" stroke-width="14"/>
<rect x="64.9846" y="98.4615" width="177.231" height="177.231" rx="88.6154" fill="#7D707A"/>
<rect x="198.892" y="326.892" width="102.4" height="102.4" rx="51.2" fill="#7D707A"/>
<rect x="384" y="153.6" width="66.9538" height="66.9538" rx="33.4769" fill="#7D707A"/>
<mask id="path-7-outside-1_1_2" maskUnits="userSpaceOnUse" x="125.953" y="141.354" width="253" height="230" fill="black">
<rect fill="white" x="125.953" y="141.354" width="253" height="230"/>
<path d="M166.153 361.354H136.153V151.354H151.153C165.753 151.354 181.553 154.154 198.553 159.754C215.753 165.354 232.953 173.254 250.153 183.454C267.353 193.654 283.553 205.854 298.753 220.054C314.153 234.054 327.353 249.654 338.353 266.854V151.354H368.353V361.354H338.353C338.353 342.954 334.553 325.354 326.953 308.554C319.553 291.554 309.653 275.954 297.253 261.754C284.853 247.354 271.053 234.654 255.853 223.654C240.853 212.454 225.553 203.354 209.953 196.354C194.353 189.154 179.753 184.554 166.153 182.554V361.354Z"/>
</mask>
<path d="M166.153 361.354H136.153V151.354H151.153C165.753 151.354 181.553 154.154 198.553 159.754C215.753 165.354 232.953 173.254 250.153 183.454C267.353 193.654 283.553 205.854 298.753 220.054C314.153 234.054 327.353 249.654 338.353 266.854V151.354H368.353V361.354H338.353C338.353 342.954 334.553 325.354 326.953 308.554C319.553 291.554 309.653 275.954 297.253 261.754C284.853 247.354 271.053 234.654 255.853 223.654C240.853 212.454 225.553 203.354 209.953 196.354C194.353 189.154 179.753 184.554 166.153 182.554V361.354Z" fill="white"/>
<path d="M166.153 361.354V371.354H176.153V361.354H166.153ZM136.153 361.354H126.153V371.354H136.153V361.354ZM136.153 151.354V141.354H126.153V151.354H136.153ZM198.553 159.754L195.424 169.252L195.44 169.258L195.457 169.263L198.553 159.754ZM298.753 220.054L291.926 227.362L291.976 227.408L292.026 227.454L298.753 220.054ZM338.353 266.854L329.928 272.242L348.353 301.051V266.854H338.353ZM338.353 151.354V141.354H328.353V151.354H338.353ZM368.353 151.354H378.353V141.354H368.353V151.354ZM368.353 361.354V371.354H378.353V361.354H368.353ZM338.353 361.354H328.353V371.354H338.353V361.354ZM326.953 308.554L317.784 312.546L317.812 312.611L317.842 312.676L326.953 308.554ZM297.253 261.754L289.675 268.28L289.698 268.306L289.72 268.332L297.253 261.754ZM255.853 223.654L249.87 231.667L249.929 231.712L249.99 231.756L255.853 223.654ZM209.953 196.354L205.762 205.434L205.81 205.456L205.859 205.478L209.953 196.354ZM166.153 182.554L167.608 172.661L156.153 170.976V182.554H166.153ZM166.153 361.354V351.354H136.153V361.354V371.354H166.153V361.354ZM136.153 361.354H146.153V151.354H136.153H126.153V361.354H136.153ZM136.153 151.354V161.354H151.153V151.354V141.354H136.153V151.354ZM151.153 151.354V161.354C164.481 161.354 179.214 163.913 195.424 169.252L198.553 159.754L201.681 150.256C183.891 144.396 167.024 141.354 151.153 141.354V151.354ZM198.553 159.754L195.457 169.263C211.888 174.613 228.419 182.192 245.052 192.056L250.153 183.454L255.253 174.853C237.486 164.317 219.617 156.096 201.648 150.246L198.553 159.754ZM250.153 183.454L245.052 192.056C261.607 201.873 277.232 213.634 291.926 227.362L298.753 220.054L305.579 212.747C289.873 198.075 273.098 185.435 255.253 174.853L250.153 183.454ZM298.753 220.054L292.026 227.454C306.787 240.873 319.412 255.799 329.928 272.242L338.353 266.854L346.777 261.467C335.293 243.51 321.519 227.236 305.479 212.655L298.753 220.054ZM338.353 266.854H348.353V151.354H338.353H328.353V266.854H338.353ZM338.353 151.354V161.354H368.353V151.354V141.354H338.353V151.354ZM368.353 151.354H358.353V361.354H368.353H378.353V151.354H368.353ZM368.353 361.354V351.354H338.353V361.354V371.354H368.353V361.354ZM338.353 361.354H348.353C348.353 341.53 344.248 322.525 336.064 304.433L326.953 308.554L317.842 312.676C324.857 328.184 328.353 344.379 328.353 361.354H338.353ZM326.953 308.554L336.122 304.563C328.305 286.606 317.848 270.137 304.785 255.177L297.253 261.754L289.72 268.332C301.457 281.772 310.8 296.502 317.784 312.546L326.953 308.554ZM297.253 261.754L304.83 255.229C291.929 240.246 277.554 227.016 261.715 215.553L255.853 223.654L249.99 231.756C264.551 242.293 277.777 254.462 289.675 268.28L297.253 261.754ZM255.853 223.654L261.836 215.642C246.303 204.044 230.375 194.558 214.047 187.231L209.953 196.354L205.859 205.478C220.731 212.151 235.402 220.865 249.87 231.667L255.853 223.654ZM209.953 196.354L214.143 187.275C197.882 179.769 182.355 174.83 167.608 172.661L166.153 182.554L164.698 192.448C177.15 194.279 190.824 198.539 205.762 205.434L209.953 196.354ZM166.153 182.554H156.153V361.354H166.153H176.153V182.554H166.153Z" fill="white" mask="url(#path-7-outside-1_1_2)"/>
<mask id="path-9-outside-2_1_2" maskUnits="userSpaceOnUse" x="416" y="171" width="985" height="171" fill="black">
<rect fill="white" x="416" y="171" width="985" height="171"/>
<path d="M587.84 337H421.32V176H587.84V199H444.32V314H587.84V337ZM568.29 268H455.82V245H568.29V268ZM805.801 291C805.801 299.433 803.731 307.177 799.591 314.23C795.451 321.13 789.854 326.65 782.801 330.79C775.901 334.93 768.234 337 759.801 337H650.781V314H759.801C766.088 314 771.454 311.777 775.901 307.33C780.501 302.73 782.801 297.287 782.801 291C782.801 284.713 780.501 279.347 775.901 274.9C771.454 270.3 766.088 268 759.801 268H650.781V245H736.801C743.088 245 748.454 242.777 752.901 238.33C757.501 233.73 759.801 228.287 759.801 222C759.801 215.713 757.501 210.347 752.901 205.9C748.454 201.3 743.088 199 736.801 199H639.281V337H616.281V176H736.801C745.234 176 752.901 178.07 759.801 182.21C766.854 186.35 772.451 191.947 776.591 199C780.731 205.9 782.801 213.567 782.801 222C782.801 226.753 782.111 231.353 780.731 235.8C779.351 240.093 777.434 244.08 774.981 247.76C784.028 250.827 791.388 256.347 797.061 264.32C802.888 272.14 805.801 281.033 805.801 291ZM1004.18 176L1003.95 256.5C1003.95 267.693 1001.88 278.197 997.741 288.01C993.601 297.67 987.851 306.18 980.491 313.54C973.131 320.9 964.545 326.65 954.731 330.79C945.071 334.93 934.721 337 923.681 337H906.661C895.621 337 885.195 334.93 875.381 330.79C865.721 326.65 857.211 320.9 849.851 313.54C842.491 306.027 836.741 297.44 832.601 287.78C828.461 277.967 826.391 267.54 826.391 256.5V176H849.391V256.5C849.391 267.08 851.921 276.74 856.981 285.48C862.195 294.067 869.171 300.967 877.911 306.18C886.651 311.393 896.235 314 906.661 314H923.681C934.261 314 943.845 311.393 952.431 306.18C961.171 300.967 968.071 294.067 973.131 285.48C978.345 276.74 980.951 267.08 980.951 256.5V176H1004.18ZM1191.07 337H1037.2V176H1060.2V314H1191.07V337ZM1395.7 337H1372.7V291H1244.13V268H1372.7V199H1290.13C1279.7 199 1270.12 201.607 1261.38 206.82C1252.64 211.88 1245.66 218.78 1240.45 227.52C1235.39 236.26 1232.86 245.92 1232.86 256.5V337H1209.86V256.5C1209.86 245.46 1211.93 235.11 1216.07 225.45C1220.21 215.637 1225.96 207.05 1233.32 199.69C1240.68 192.177 1249.19 186.35 1258.85 182.21C1268.66 178.07 1279.09 176 1290.13 176H1395.7V337Z"/>
</mask>
<path d="M587.84 337H421.32V176H587.84V199H444.32V314H587.84V337ZM568.29 268H455.82V245H568.29V268ZM805.801 291C805.801 299.433 803.731 307.177 799.591 314.23C795.451 321.13 789.854 326.65 782.801 330.79C775.901 334.93 768.234 337 759.801 337H650.781V314H759.801C766.088 314 771.454 311.777 775.901 307.33C780.501 302.73 782.801 297.287 782.801 291C782.801 284.713 780.501 279.347 775.901 274.9C771.454 270.3 766.088 268 759.801 268H650.781V245H736.801C743.088 245 748.454 242.777 752.901 238.33C757.501 233.73 759.801 228.287 759.801 222C759.801 215.713 757.501 210.347 752.901 205.9C748.454 201.3 743.088 199 736.801 199H639.281V337H616.281V176H736.801C745.234 176 752.901 178.07 759.801 182.21C766.854 186.35 772.451 191.947 776.591 199C780.731 205.9 782.801 213.567 782.801 222C782.801 226.753 782.111 231.353 780.731 235.8C779.351 240.093 777.434 244.08 774.981 247.76C784.028 250.827 791.388 256.347 797.061 264.32C802.888 272.14 805.801 281.033 805.801 291ZM1004.18 176L1003.95 256.5C1003.95 267.693 1001.88 278.197 997.741 288.01C993.601 297.67 987.851 306.18 980.491 313.54C973.131 320.9 964.545 326.65 954.731 330.79C945.071 334.93 934.721 337 923.681 337H906.661C895.621 337 885.195 334.93 875.381 330.79C865.721 326.65 857.211 320.9 849.851 313.54C842.491 306.027 836.741 297.44 832.601 287.78C828.461 277.967 826.391 267.54 826.391 256.5V176H849.391V256.5C849.391 267.08 851.921 276.74 856.981 285.48C862.195 294.067 869.171 300.967 877.911 306.18C886.651 311.393 896.235 314 906.661 314H923.681C934.261 314 943.845 311.393 952.431 306.18C961.171 300.967 968.071 294.067 973.131 285.48C978.345 276.74 980.951 267.08 980.951 256.5V176H1004.18ZM1191.07 337H1037.2V176H1060.2V314H1191.07V337ZM1395.7 337H1372.7V291H1244.13V268H1372.7V199H1290.13C1279.7 199 1270.12 201.607 1261.38 206.82C1252.64 211.88 1245.66 218.78 1240.45 227.52C1235.39 236.26 1232.86 245.92 1232.86 256.5V337H1209.86V256.5C1209.86 245.46 1211.93 235.11 1216.07 225.45C1220.21 215.637 1225.96 207.05 1233.32 199.69C1240.68 192.177 1249.19 186.35 1258.85 182.21C1268.66 178.07 1279.09 176 1290.13 176H1395.7V337Z" fill="white"/>
<path d="M587.84 337V342H592.84V337H587.84ZM421.32 337H416.32V342H421.32V337ZM421.32 176V171H416.32V176H421.32ZM587.84 176H592.84V171H587.84V176ZM587.84 199V204H592.84V199H587.84ZM444.32 199V194H439.32V199H444.32ZM444.32 314H439.32V319H444.32V314ZM587.84 314H592.84V309H587.84V314ZM568.29 268V273H573.29V268H568.29ZM455.82 268H450.82V273H455.82V268ZM455.82 245V240H450.82V245H455.82ZM568.29 245H573.29V240H568.29V245ZM587.84 337V332H421.32V337V342H587.84V337ZM421.32 337H426.32V176H421.32H416.32V337H421.32ZM421.32 176V181H587.84V176V171H421.32V176ZM587.84 176H582.84V199H587.84H592.84V176H587.84ZM587.84 199V194H444.32V199V204H587.84V199ZM444.32 199H439.32V314H444.32H449.32V199H444.32ZM444.32 314V319H587.84V314V309H444.32V314ZM587.84 314H582.84V337H587.84H592.84V314H587.84ZM568.29 268V263H455.82V268V273H568.29V268ZM455.82 268H460.82V245H455.82H450.82V268H455.82ZM455.82 245V250H568.29V245V240H455.82V245ZM568.29 245H563.29V268H568.29H573.29V245H568.29ZM799.591 314.23L803.878 316.802L803.891 316.782L803.903 316.761L799.591 314.23ZM782.801 330.79L780.27 326.478L780.249 326.49L780.228 326.503L782.801 330.79ZM650.781 337H645.781V342H650.781V337ZM650.781 314V309H645.781V314H650.781ZM775.901 307.33L779.436 310.866H779.436L775.901 307.33ZM775.901 274.9L772.306 278.375L772.365 278.436L772.426 278.495L775.901 274.9ZM650.781 268H645.781V273H650.781V268ZM650.781 245V240H645.781V245H650.781ZM752.901 238.33L749.365 234.794L752.901 238.33ZM752.901 205.9L749.306 209.375L749.365 209.436L749.426 209.495L752.901 205.9ZM639.281 199V194H634.281V199H639.281ZM639.281 337V342H644.281V337H639.281ZM616.281 337H611.281V342H616.281V337ZM616.281 176V171H611.281V176H616.281ZM759.801 182.21L757.228 186.497L757.249 186.51L757.27 186.522L759.801 182.21ZM776.591 199L772.279 201.531L772.291 201.552L772.303 201.572L776.591 199ZM780.731 235.8L785.491 237.33L785.499 237.306L785.506 237.282L780.731 235.8ZM774.981 247.76L770.821 244.987L767.209 250.405L773.376 252.495L774.981 247.76ZM797.061 264.32L792.987 267.219L793.019 267.263L793.052 267.307L797.061 264.32ZM805.801 291H800.801C800.801 298.573 798.954 305.438 795.279 311.699L799.591 314.23L803.903 316.761C808.508 308.916 810.801 300.294 810.801 291H805.801ZM799.591 314.23L795.303 311.658C791.601 317.828 786.614 322.754 780.27 326.478L782.801 330.79L785.332 335.102C793.095 330.546 799.3 324.432 803.878 316.802L799.591 314.23ZM782.801 330.79L780.228 326.503C774.144 330.153 767.374 332 759.801 332V337V342C769.095 342 777.658 339.707 785.373 335.077L782.801 330.79ZM759.801 337V332H650.781V337V342H759.801V337ZM650.781 337H655.781V314H650.781H645.781V337H650.781ZM650.781 314V319H759.801V314V309H650.781V314ZM759.801 314V319C767.414 319 774.052 316.25 779.436 310.866L775.901 307.33L772.365 303.794C768.856 307.304 764.761 309 759.801 309V314ZM775.901 307.33L779.436 310.866C784.938 305.364 787.801 298.663 787.801 291H782.801H777.801C777.801 295.91 776.064 300.096 772.365 303.794L775.901 307.33ZM782.801 291H787.801C787.801 283.331 784.931 276.675 779.376 271.305L775.901 274.9L772.426 278.495C776.071 282.018 777.801 286.096 777.801 291H782.801ZM775.901 274.9L779.496 271.425C774.126 265.87 767.47 263 759.801 263V268V273C764.705 273 768.783 274.73 772.306 278.375L775.901 274.9ZM759.801 268V263H650.781V268V273H759.801V268ZM650.781 268H655.781V245H650.781H645.781V268H650.781ZM650.781 245V250H736.801V245V240H650.781V245ZM736.801 245V250C744.414 250 751.052 247.25 756.436 241.866L752.901 238.33L749.365 234.794C745.856 238.304 741.761 240 736.801 240V245ZM752.901 238.33L756.436 241.866C761.938 236.364 764.801 229.663 764.801 222H759.801H754.801C754.801 226.91 753.064 231.096 749.365 234.794L752.901 238.33ZM759.801 222H764.801C764.801 214.331 761.931 207.675 756.376 202.305L752.901 205.9L749.426 209.495C753.071 213.018 754.801 217.096 754.801 222H759.801ZM752.901 205.9L756.496 202.425C751.126 196.87 744.47 194 736.801 194V199V204C741.705 204 745.783 205.73 749.306 209.375L752.901 205.9ZM736.801 199V194H639.281V199V204H736.801V199ZM639.281 199H634.281V337H639.281H644.281V199H639.281ZM639.281 337V332H616.281V337V342H639.281V337ZM616.281 337H621.281V176H616.281H611.281V337H616.281ZM616.281 176V181H736.801V176V171H616.281V176ZM736.801 176V181C744.374 181 751.144 182.847 757.228 186.497L759.801 182.21L762.373 177.923C754.658 173.293 746.095 171 736.801 171V176ZM759.801 182.21L757.27 186.522C763.587 190.23 768.571 195.214 772.279 201.531L776.591 199L780.903 196.469C776.331 188.68 770.121 182.47 762.332 177.898L759.801 182.21ZM776.591 199L772.303 201.572C775.954 207.657 777.801 214.427 777.801 222H782.801H787.801C787.801 212.706 785.508 204.143 780.878 196.428L776.591 199ZM782.801 222H777.801C777.801 226.261 777.184 230.361 775.956 234.318L780.731 235.8L785.506 237.282C787.038 232.345 787.801 227.245 787.801 222H782.801ZM780.731 235.8L775.971 234.27C774.729 238.132 773.012 241.699 770.821 244.987L774.981 247.76L779.141 250.533C781.856 246.461 783.972 242.055 785.491 237.33L780.731 235.8ZM774.981 247.76L773.376 252.495C781.401 255.216 787.907 260.079 792.987 267.219L797.061 264.32L801.135 261.421C794.868 252.614 786.654 246.438 776.586 243.025L774.981 247.76ZM797.061 264.32L793.052 267.307C798.22 274.244 800.801 282.084 800.801 291H805.801H810.801C810.801 279.982 807.555 270.036 801.07 261.333L797.061 264.32ZM1004.18 176L1009.18 176.014L1009.2 171H1004.18V176ZM1003.95 256.5L998.951 256.486V256.493V256.5H1003.95ZM997.741 288.01L1002.34 289.98L1002.34 289.967L1002.35 289.953L997.741 288.01ZM980.491 313.54L976.956 310.004V310.004L980.491 313.54ZM954.731 330.79L952.788 326.183L952.775 326.189L952.762 326.194L954.731 330.79ZM875.381 330.79L873.412 335.386L873.425 335.391L873.438 335.397L875.381 330.79ZM849.851 313.54L846.28 317.039L846.298 317.057L846.316 317.076L849.851 313.54ZM832.601 287.78L827.995 289.724L828 289.737L828.006 289.75L832.601 287.78ZM826.391 176V171H821.391V176H826.391ZM849.391 176H854.391V171H849.391V176ZM856.981 285.48L852.654 287.985L852.68 288.03L852.707 288.075L856.981 285.48ZM877.911 306.18L880.473 301.886V301.886L877.911 306.18ZM952.431 306.18L949.87 301.886L949.853 301.896L949.836 301.906L952.431 306.18ZM973.131 285.48L968.837 282.919L968.83 282.93L968.824 282.942L973.131 285.48ZM980.951 176V171H975.951V176H980.951ZM1004.18 176L999.181 175.986L998.951 256.486L1003.95 256.5L1008.95 256.514L1009.18 176.014L1004.18 176ZM1003.95 256.5H998.951C998.951 267.06 997.002 276.899 993.135 286.066L997.741 288.01L1002.35 289.953C1006.76 279.494 1008.95 268.326 1008.95 256.5H1003.95ZM997.741 288.01L993.146 286.04C989.254 295.122 983.862 303.099 976.956 310.004L980.491 313.54L984.027 317.076C991.841 309.261 997.949 300.218 1002.34 289.98L997.741 288.01ZM980.491 313.54L976.956 310.004C970.063 316.897 962.02 322.288 952.788 326.183L954.731 330.79L956.675 335.397C967.069 331.012 976.2 324.903 984.027 317.076L980.491 313.54ZM954.731 330.79L952.762 326.194C943.755 330.054 934.079 332 923.681 332V337V342C935.364 342 946.387 339.806 956.701 335.386L954.731 330.79ZM923.681 337V332H906.661V337V342H923.681V337ZM906.661 337V332C896.264 332 886.501 330.054 877.325 326.183L875.381 330.79L873.438 335.397C883.889 339.806 894.979 342 906.661 342V337ZM875.381 330.79L877.351 326.194C868.27 322.302 860.293 316.91 853.387 310.004L849.851 313.54L846.316 317.076C854.13 324.89 863.173 330.998 873.412 335.386L875.381 330.79ZM849.851 313.54L853.423 310.041C846.496 302.969 841.093 294.901 837.197 285.81L832.601 287.78L828.006 289.75C832.39 299.979 838.487 309.084 846.28 317.039L849.851 313.54ZM832.601 287.78L837.208 285.836C833.337 276.661 831.391 266.897 831.391 256.5H826.391H821.391C821.391 268.183 823.586 279.273 827.995 289.724L832.601 287.78ZM826.391 256.5H831.391V176H826.391H821.391V256.5H826.391ZM826.391 176V181H849.391V176V171H826.391V176ZM849.391 176H844.391V256.5H849.391H854.391V176H849.391ZM849.391 256.5H844.391C844.391 267.916 847.132 278.447 852.654 287.985L856.981 285.48L861.308 282.975C856.711 275.033 854.391 266.244 854.391 256.5H849.391ZM856.981 285.48L852.707 288.075C858.35 297.369 865.919 304.848 875.35 310.474L877.911 306.18L880.473 301.886C872.424 297.085 866.039 290.765 861.255 282.885L856.981 285.48ZM877.911 306.18L875.35 310.474C884.884 316.161 895.356 319 906.661 319V314V309C897.113 309 888.418 306.625 880.473 301.886L877.911 306.18ZM906.661 314V319H923.681V314V309H906.661V314ZM923.681 314V319C935.126 319 945.615 316.168 955.026 310.454L952.431 306.18L949.836 301.906C942.074 306.619 933.397 309 923.681 309V314ZM952.431 306.18L954.993 310.474C964.437 304.841 971.944 297.343 977.439 288.018L973.131 285.48L968.824 282.942C964.199 290.79 957.906 297.093 949.87 301.886L952.431 306.18ZM973.131 285.48L977.425 288.041C983.12 278.495 985.951 267.944 985.951 256.5H980.951H975.951C975.951 266.216 973.57 274.985 968.837 282.919L973.131 285.48ZM980.951 256.5H985.951V176H980.951H975.951V256.5H980.951ZM980.951 176V181H1004.18V176V171H980.951V176ZM1191.07 337V342H1196.07V337H1191.07ZM1037.2 337H1032.2V342H1037.2V337ZM1037.2 176V171H1032.2V176H1037.2ZM1060.2 176H1065.2V171H1060.2V176ZM1060.2 314H1055.2V319H1060.2V314ZM1191.07 314H1196.07V309H1191.07V314ZM1191.07 337V332H1037.2V337V342H1191.07V337ZM1037.2 337H1042.2V176H1037.2H1032.2V337H1037.2ZM1037.2 176V181H1060.2V176V171H1037.2V176ZM1060.2 176H1055.2V314H1060.2H1065.2V176H1060.2ZM1060.2 314V319H1191.07V314V309H1060.2V314ZM1191.07 314H1186.07V337H1191.07H1196.07V314H1191.07ZM1395.7 337V342H1400.7V337H1395.7ZM1372.7 337H1367.7V342H1372.7V337ZM1372.7 291H1377.7V286H1372.7V291ZM1244.13 291H1239.13V296H1244.13V291ZM1244.13 268V263H1239.13V268H1244.13ZM1372.7 268V273H1377.7V268H1372.7ZM1372.7 199H1377.7V194H1372.7V199ZM1261.38 206.82L1263.88 211.147L1263.91 211.131L1263.94 211.114L1261.38 206.82ZM1240.45 227.52L1236.15 224.959L1236.14 224.987L1236.12 225.015L1240.45 227.52ZM1232.86 337V342H1237.86V337H1232.86ZM1209.86 337H1204.86V342H1209.86V337ZM1216.07 225.45L1220.66 227.42L1220.67 227.407L1220.68 227.393L1216.07 225.45ZM1233.32 199.69L1236.85 203.226L1236.87 203.207L1236.89 203.189L1233.32 199.69ZM1258.85 182.21L1256.91 177.603L1256.89 177.609L1256.88 177.614L1258.85 182.21ZM1395.7 176H1400.7V171H1395.7V176ZM1395.7 337V332H1372.7V337V342H1395.7V337ZM1372.7 337H1377.7V291H1372.7H1367.7V337H1372.7ZM1372.7 291V286H1244.13V291V296H1372.7V291ZM1244.13 291H1249.13V268H1244.13H1239.13V291H1244.13ZM1244.13 268V273H1372.7V268V263H1244.13V268ZM1372.7 268H1377.7V199H1372.7H1367.7V268H1372.7ZM1372.7 199V194H1290.13V199V204H1372.7V199ZM1290.13 199V194C1278.82 194 1268.35 196.839 1258.82 202.526L1261.38 206.82L1263.94 211.114C1271.89 206.375 1280.58 204 1290.13 204V199ZM1261.38 206.82L1258.87 202.493C1249.39 207.983 1241.8 215.493 1236.15 224.959L1240.45 227.52L1244.74 230.081C1249.52 222.067 1255.89 215.777 1263.88 211.147L1261.38 206.82ZM1240.45 227.52L1236.12 225.015C1230.6 234.553 1227.86 245.084 1227.86 256.5H1232.86H1237.86C1237.86 246.756 1240.18 237.967 1244.78 230.025L1240.45 227.52ZM1232.86 256.5H1227.86V337H1232.86H1237.86V256.5H1232.86ZM1232.86 337V332H1209.86V337V342H1232.86V337ZM1209.86 337H1214.86V256.5H1209.86H1204.86V337H1209.86ZM1209.86 256.5H1214.86C1214.86 246.102 1216.8 236.426 1220.66 227.42L1216.07 225.45L1211.47 223.48C1207.05 233.794 1204.86 244.818 1204.86 256.5H1209.86ZM1216.07 225.45L1220.68 227.393C1224.57 218.161 1229.96 210.118 1236.85 203.226L1233.32 199.69L1229.78 196.154C1221.96 203.982 1215.85 213.112 1211.46 223.507L1216.07 225.45ZM1233.32 199.69L1236.89 203.189C1243.79 196.142 1251.76 190.688 1260.82 186.806L1258.85 182.21L1256.88 177.614C1246.62 182.012 1237.56 188.211 1229.75 196.191L1233.32 199.69ZM1258.85 182.21L1260.79 186.817C1269.97 182.946 1279.73 181 1290.13 181V176V171C1278.45 171 1267.36 173.194 1256.91 177.603L1258.85 182.21ZM1290.13 176V181H1395.7V176V171H1290.13V176ZM1395.7 176H1390.7V337H1395.7H1400.7V176H1395.7Z" fill="white" mask="url(#path-9-outside-2_1_2)"/>
</g>
<defs>
<linearGradient id="paint0_linear_1_2" x1="256" y1="0" x2="256" y2="512" gradientUnits="userSpaceOnUse">
<stop offset="0.456731" stop-color="#252525"/>
<stop offset="1" stop-color="#652D58"/>
</linearGradient>
<linearGradient id="paint1_linear_1_2" x1="256" y1="0" x2="256" y2="512" gradientUnits="userSpaceOnUse">
<stop stop-color="#863B75"/>
<stop offset="1" stop-color="#AFAFAF"/>
</linearGradient>
<clipPath id="clip0_1_2">
<rect width="1415" height="512" fill="white"/>
</clipPath>
</defs>
</svg>
